<svg xmlns="http://www.w3.org/2000/svg" viewBox="0 0 17.69 14.62"><defs><style>.cls-1{fill:#2d3c6b;}.cls-2{fill:#ffc839;}.cls-3{fill:#ff9100;}.cls-4{fill:#4d4d4d;fill-rule:evenodd;}</style></defs><g id="Layer_2" data-name="Layer 2"><g id="Layer_1-2" data-name="Layer 1"><rect class="cls-1" x="3.24" y="13.09" width="11.22" height="1.53" rx="0.76"/><path class="cls-2" d="M13,13.09H4.66L6.53,9.56h4.63Z"/><path class="cls-3" d="M6.43,12l.74-1.39h3.35L11.26,12Z"/><path class="cls-2" d="M4.75,0V5.33a3.45,3.45,0,0,0,1.78,3h4.63a3.45,3.45,0,0,0,1.79-3V0Z"/><path class="cls-3" d="M6.37,8.27h5V9.56H6.37Z"/><path class="cls-3" d="M15.7.4H13.23V1.54H15.7a.85.85,0,0,1,.85.85V4.2A.85.85,0,0,1,15.9,5l-2.73.65A3.68,3.68,0,0,1,12.69,7l3.47-.83A2,2,0,0,0,17.69,4.2V2.39A2,2,0,0,0,15.7.4Z"/><path class="cls-3" d="M2,.4H4.46V1.54H2a.85.85,0,0,0-.85.85V4.2A.86.86,0,0,0,1.79,5l2.73.65A3.7,3.7,0,0,0,5,7L1.53,6.13A2,2,0,0,1,0,4.2V2.39A2,2,0,0,1,2,.4Z"/><g id="Page-1"><g id="Dribbble-Light-Preview"><g id="icons"><path id="code-_1115_" data-name="code-[#1115]" class="cls-4" d="M7.74,2.76a.27.27,0,0,0,0-.39h0a.26.26,0,0,0-.38,0l-1,1a.26.26,0,0,0,0,.38l1,1a.26.26,0,0,0,.38,0h0a.27.27,0,0,0,0-.39l-.58-.59a.26.26,0,0,1,0-.38Zm3.73.59-1-1a.27.27,0,0,0-.39,0h0a.29.29,0,0,0,0,.39l.58.59a.26.26,0,0,1,0,.38l-.58.59a.29.29,0,0,0,0,.39h0a.27.27,0,0,0,.39,0l1-1a.28.28,0,0,0,0-.38ZM9.84,2.2l-1.4,3c0,.09-.12.21-.22.21h0A.32.32,0,0,1,8,5L9.36,2c0-.09.21-.17.21-.17h0a.26.26,0,0,1,.27.39Z"/></g></g></g></g></g></svg>