<svg xmlns="http://www.w3.org/2000/svg" viewBox="0 0 47.63 47.64"><defs><style>.cls-1{fill:#2d3c6b;}.cls-2{fill:#ffc839;}.cls-3{fill:#ff9100;}.cls-4,.cls-5{fill:#4d4d4d;}.cls-4{fill-rule:evenodd;}</style></defs><g id="Layer_2" data-name="Layer 2"><g id="Layer_1-2" data-name="Layer 1"><text/><rect class="cls-1" x="9.89" y="38.95" width="27.87" height="3.8" rx="1.9"/><path class="cls-2" d="M34.23,39H13.42l4.65-8.75H29.59Z"/><path class="cls-3" d="M17.82,36.31l1.84-3.47H28l1.84,3.47Z"/><path class="cls-2" d="M13.64,6.44V19.68a8.6,8.6,0,0,0,4.43,7.51H29.59A8.6,8.6,0,0,0,34,19.68V6.44Z"/><path class="cls-3" d="M17.68,27H30V30.2H17.68Z"/><path class="cls-3" d="M40.86,7.43H34.72v2.82h6.14A2.12,2.12,0,0,1,43,12.37v4.49a2.12,2.12,0,0,1-1.62,2.07l-6.78,1.61a9.09,9.09,0,0,1-1.21,3.19L42,21.67a4.93,4.93,0,0,0,3.8-4.81V12.37A5,5,0,0,0,40.86,7.43Z"/><path class="cls-3" d="M6.79,7.43h6.15v2.82H6.79a2.11,2.11,0,0,0-2.11,2.12v4.49A2.11,2.11,0,0,0,6.3,18.93l6.78,1.61a9.09,9.09,0,0,0,1.21,3.19L5.65,21.67a4.92,4.92,0,0,1-3.8-4.81V12.37A4.94,4.94,0,0,1,6.79,7.43Z"/><g id="Page-1"><g id="Dribbble-Light-Preview"><g id="icons"><path id="code-_1115_" data-name="code-[#1115]" class="cls-4" d="M21.09,13.29a.69.69,0,0,0,0-1h0a.66.66,0,0,0-.95,0l-2.41,2.43a.69.69,0,0,0,0,1l2.41,2.43a.68.68,0,0,0,.95,0h0a.69.69,0,0,0,0-1l-1.45-1.46a.69.69,0,0,1,0-1Zm9.25,1.46-2.41-2.43a.66.66,0,0,0-.95,0h0a.69.69,0,0,0,0,1l1.45,1.46a.69.69,0,0,1,0,1L27,17.17a.69.69,0,0,0,0,1h0a.68.68,0,0,0,.95,0l2.41-2.43a.69.69,0,0,0,0-1Zm-4-2.84-3.47,7.42c-.11.23-.31.52-.56.52h0a.81.81,0,0,1-.6-1.13l3.45-7.34c.11-.24.53-.42.53-.42h0a.65.65,0,0,1,.67,1Z"/></g></g></g><path class="cls-5" d="M46.86,6.15a.77.77,0,0,0,.77-.77V.77A.76.76,0,0,0,46.86,0H.77A.76.76,0,0,0,0,.77V5.38a.77.77,0,0,0,.77.77h.77V41.48H.77a.77.77,0,0,0-.77.77v4.61a.76.76,0,0,0,.77.77H34.59a12.81,12.81,0,0,1,4.87-.24,5.8,5.8,0,0,1,1.28.24h6.12a.76.76,0,0,0,.77-.77V42.25a.77.77,0,0,0-.77-.77h-.77V6.15Zm-.77,39.94H1.54V43H46.09Zm-43-4.61V6.15H4.61V41.48Zm8.45-20.74v6.15H6.15V20.74ZM6.15,19.21V6.15h5.37V19.21Zm5.37,9.21V41.48H6.15V28.42Zm7.69-7.68v6.15H13.06V20.74Zm-6.15-1.53V6.15h6.15V19.21Zm6.15,9.21V41.48H13.06V28.42Zm7.68-7.68v6.15H20.74V20.74Zm-6.15-1.53V6.15h6.15V19.21Zm6.15,9.21V41.48H20.74V28.42Zm7.68-7.68v6.15H28.42V20.74Zm-6.15-1.53V6.15h6.15V19.21Zm6.15,9.21V41.48H28.42V28.42Zm6.91-7.68v6.15H36.11V20.74Zm-5.37-1.53V6.15h5.37V19.21Zm5.37,9.21V41.48H36.11V28.42ZM43,41.48V6.15h1.54V41.48ZM1.54,4.61V1.54H46.09V4.61Z"/><path class="cls-5" d="M2.3,2.3H3.84V3.84H2.3Z"/><path class="cls-5" d="M43.79,2.3h1.53V3.84H43.79Z"/><path class="cls-5" d="M2.3,43.79H3.84v1.53H2.3Z"/><path class="cls-5" d="M43.79,43.79h1.53v1.53H43.79Z"/><path class="cls-5" d="M10,21.51H6.91v1.54h.77v3.07H9.22V23.05H10Z"/><rect class="cls-5" x="0.63" y="1" width="46" height="4"/><rect class="cls-5" x="1.13" y="42.14" width="45" height="5.5"/></g></g></svg>