<svg xmlns="http://www.w3.org/2000/svg" viewBox="0 0 41.66 35.75"><defs><style>.cls-1{fill:#2d3c6b;}.cls-2{fill:#ffc839;}.cls-3{fill:#ff9100;}.cls-4{fill:#4d4d4d;fill-rule:evenodd;}.cls-5{fill:#fff;}</style></defs><g id="Layer_2" data-name="Layer 2"><g id="Layer_1-2" data-name="Layer 1"><path class="cls-1" d="M9.42,32H32.23A1.83,1.83,0,0,1,34,33.89h0a1.83,1.83,0,0,1-1.8,1.86H9.42a1.83,1.83,0,0,1-1.8-1.86h0A1.83,1.83,0,0,1,9.42,32Z"/><path class="cls-2" d="M30.69,32H11l4.4-8.59H26.28Z"/><path class="cls-3" d="M15.13,29.43,16.88,26h7.9l1.74,3.4Z"/><path class="cls-2" d="M11.17.14v13a8.51,8.51,0,0,0,4.2,7.37H26.28a8.49,8.49,0,0,0,4.2-7.37V.14Z"/><path class="cls-3" d="M15,20.28H26.66v3.16H15Z"/><path class="cls-3" d="M37,1.11H31.15V3.88H37A2,2,0,0,1,39,6v4.4a2.08,2.08,0,0,1-1.54,2L31,14a8.93,8.93,0,0,1-1.14,3.13l8.19-2a4.82,4.82,0,0,0,3.6-4.72V6A4.78,4.78,0,0,0,37,1.11Z"/><path class="cls-3" d="M4.68,1.11h5.83V3.88H4.68A2,2,0,0,0,2.68,6v4.4a2.05,2.05,0,0,0,1.54,2L10.64,14a9.15,9.15,0,0,0,1.15,3.13l-8.19-2A4.8,4.8,0,0,1,0,10.36V6A4.77,4.77,0,0,1,4.68,1.11Z"/><g id="Page-1"><g id="Dribbble-Light-Preview"><g id="icons"><path id="code-_1115_" data-name="code-[#1115]" class="cls-4" d="M18.23,6.86a.7.7,0,0,0,0-1h0a.62.62,0,0,0-.9,0L15,8.29a.68.68,0,0,0,0,.94l2.28,2.38a.62.62,0,0,0,.9,0h0a.68.68,0,0,0,0-.94L16.86,9.23a.68.68,0,0,1,0-.94ZM27,8.29,24.72,5.91a.62.62,0,0,0-.9,0h0a.7.7,0,0,0,0,1l1.37,1.43a.68.68,0,0,1,0,.94l-1.37,1.43a.68.68,0,0,0,0,.94h0a.62.62,0,0,0,.9,0L27,9.23a.68.68,0,0,0,0-.94ZM23.17,5.51l-3.29,7.27c-.11.23-.29.51-.53.51h0c-.46,0-.77-.66-.56-1.1L22,5a1.18,1.18,0,0,1,.51-.4v0a.64.64,0,0,1,.63,1Z"/></g></g></g><path class="cls-5" d="M25,12.14l-5.7-5.57L23,4.05l.76-.51-.32-1L22.7.11h0a.47.47,0,0,1-.3-.11c-.86,0-1.73.08-2.59.06a.49.49,0,0,1-.25.07l-.13,0,.33.8.77,1.71-3.42,3-1,.85.93.69,7,5.32-4.25,4.15L25,12.77l.36-.27Z"/></g></g></svg>